<svg xmlns="http://www.w3.org/2000/svg" viewBox="0 0 512 512">
  <defs>
    <linearGradient id="grad" x1="0%" y1="0%" x2="100%" y2="100%">
      <stop offset="0%" style="stop-color:#3b82f6;stop-opacity:1" />
      <stop offset="100%" style="stop-color:#2563eb;stop-opacity:1" />
    </linearGradient>
  </defs>
  <circle cx="256" cy="256" r="256" fill="url(#grad)" />
  <path fill="white" d="M370.7 224L352 176H304V160H352V128H304V112H352V48H272V80H288V128H240V48h-80V82.2l-37.5 75-35.1-17.6-14.3 28.5 35.1 17.6L97.5 208H48v32h64l32 64h32v48H128v64h48v-64h176v64h48v-64h-48v-48h32l32-64h48v-32h-64l-32-64zm-224 48H128v-32h18.7l16 32zm202.7 0H336v-32h13.3l16 64-16-32zm-32 112H192v-32h125.3l32 32z"/>
  <!-- Simplified motorcycle-like shape -->
  <path fill="#ffffff" d="M144 384c-26.5 0-48-21.5-48-48s21.5-48 48-48 48 21.5 48 48-21.5 48-48 48zm224 0c-26.5 0-48-21.5-48-48s21.5-48 48-48 48 21.5 48 48-21.5 48-48 48zM312 256H184c-13.3 0-24-10.7-24-24s10.7-24 24-24h128c13.3 0 24 10.7 24 24s-10.7 24-24 24z"/>
  <!-- Handlebars/Tank -->
  <path fill="#ffffff" d="M340 200h-30l-20-40h-80l-20 40h-30c-5.5 0-10 4.5-10 10v20h200v-20c0-5.5-4.5-10-10-10z"/>
</svg>
